<?xml version="1.0" standalone="no"?>
<!DOCTYPE svg PUBLIC "-//W3C//DTD SVG 20010904//EN"
 "http://www.w3.org/TR/2001/REC-SVG-20010904/DTD/svg10.dtd">
<svg version="1.0" xmlns="http://www.w3.org/2000/svg"
 width="500.000000pt" height="500.000000pt" viewBox="0 0 500.000000 500.000000"
 preserveAspectRatio="xMidYMid meet">
<metadata>
Created by potrace 1.11, written by Peter Selinger 2001-2013
</metadata>
<g transform="translate(0.000000,500.000000) scale(0.100000,-0.100000)"
fill="#000000" stroke="none">
<path d="M663 3667 c-66 -66 -83 -89 -83 -112 0 -25 65 -95 467 -497 l468
-468 -468 -468 c-397 -398 -467 -472 -467 -496 0 -22 18 -47 82 -112 67 -69
87 -84 112 -84 27 0 95 64 593 563 528 528 563 564 563 597 0 33 -35 69 -563
597 -487 487 -566 563 -591 563 -24 0 -47 -17 -113 -83z"/>
<path d="M2066 1529 c-25 -20 -26 -24 -26 -128 0 -99 2 -109 23 -129 l23 -22
1145 0 1146 0 21 23 c20 21 22 34 22 126 0 95 -2 104 -25 126 l-24 25 -1139 0
c-1137 0 -1139 0 -1166 -21z"/>
</g>
</svg>
